<svg id="visual" viewBox="0 0 960 540" width="960" height="540" xmlns="http://www.w3.org/2000/svg" xmlns:xlink="http://www.w3.org/1999/xlink" version="1.1"><rect width="960" height="540" fill="#fff"></rect><g><g transform="translate(927 301)"><path d="M28.4 -23.8C35.7 -13.5 39.8 -1.8 37.8 9.4C35.9 20.6 28 31.2 17.1 36.9C6.3 42.6 -7.6 43.5 -18.9 38.4C-30.3 33.3 -39.2 22.1 -41.2 10.3C-43.2 -1.5 -38.2 -14 -30.2 -24.4C-22.2 -34.8 -11.1 -43.1 -0.3 -42.9C10.6 -42.7 21.1 -34 28.4 -23.8Z" fill="#EEFBFF"></path></g><g transform="translate(479 230)"><path d="M9.9 -7.9C12.2 -4.9 13.1 -0.9 12.5 3.2C11.9 7.4 9.7 11.5 5.9 14C2.1 16.4 -3.2 17.2 -7.6 15.3C-12 13.4 -15.3 8.8 -15.8 4.3C-16.3 -0.2 -14 -4.8 -10.9 -7.9C-7.7 -11 -3.9 -12.7 -0.1 -12.6C3.8 -12.6 7.5 -10.8 9.9 -7.9Z" fill="#EEFBFF"></path></g><g transform="translate(535 419)"><path d="M22.1 -18.4C26.8 -11.7 27.6 -2.6 25 4.5C22.4 11.6 16.5 16.8 9.3 20.8C2.2 24.7 -6.2 27.5 -13.1 25C-20 22.5 -25.4 14.8 -26.9 6.6C-28.4 -1.6 -25.9 -10.1 -20.8 -16.9C-15.7 -23.6 -7.8 -28.5 0.4 -28.8C8.7 -29.1 17.4 -25 22.1 -18.4Z" fill="#EEFBFF"></path></g><g transform="translate(777 533)"><path d="M25.8 -18.5C32.3 -12.5 35.5 -1.8 33.6 8.1C31.6 18 24.5 27.1 15.1 31.8C5.7 36.5 -6 36.6 -15 32C-23.9 27.3 -30.1 17.8 -32.5 7.4C-34.9 -3 -33.5 -14.4 -27.5 -20.2C-21.5 -26.1 -10.7 -26.5 -0.5 -26.1C9.7 -25.7 19.4 -24.4 25.8 -18.5Z" fill="#EEFBFF"></path></g><g transform="translate(359 448)"><path d="M18.2 -13.9C23.8 -7.4 28.9 0.2 27.6 6.4C26.3 12.7 18.6 17.7 11.3 19.8C3.9 22 -3 21.3 -9.4 18.6C-15.8 15.9 -21.5 11.1 -23.7 4.6C-25.8 -1.9 -24.2 -10 -19.7 -16.3C-15.1 -22.6 -7.6 -27 -0.7 -26.5C6.3 -26 12.5 -20.5 18.2 -13.9Z" fill="#EEFBFF"></path></g><g transform="translate(612 189)"><path d="M20.1 -17.1C24.6 -10.3 26 -2 24.1 5.3C22.2 12.5 17.2 18.9 10.8 21.5C4.5 24.2 -3.1 23.2 -9.7 20.1C-16.3 16.9 -21.9 11.6 -23.8 5C-25.6 -1.6 -23.6 -9.4 -19 -16.2C-14.4 -23.1 -7.2 -28.9 0.3 -29.1C7.8 -29.3 15.5 -24 20.1 -17.1Z" fill="#EEFBFF"></path></g><g transform="translate(737 187)"><path d="M20.4 -16.6C24.1 -11.7 23.1 -3.3 20.7 3.6C18.2 10.5 14.2 15.9 8.5 19.3C2.8 22.7 -4.7 24 -11.7 21.7C-18.6 19.3 -25 13.2 -26.2 6.5C-27.3 -0.3 -23.2 -7.8 -18 -13.1C-12.8 -18.4 -6.4 -21.5 1 -22.3C8.4 -23.1 16.7 -21.6 20.4 -16.6Z" fill="#EEFBFF"></path></g><g transform="translate(888 70)"><path d="M13.4 -11C17 -6.2 19.4 -0.6 18.8 5.2C18.2 10.9 14.6 16.9 9.1 20C3.6 23 -3.8 23.2 -9.3 20.2C-14.7 17.2 -18.2 11.1 -19.3 4.8C-20.4 -1.4 -19 -7.7 -15.4 -12.5C-11.8 -17.4 -5.9 -20.7 -0.5 -20.3C4.9 -19.9 9.8 -15.8 13.4 -11Z" fill="#EEFBFF"></path></g><g transform="translate(136 220)"><path d="M17.7 -13.7C22.1 -8.8 23.9 -1.4 22.2 4.6C20.4 10.6 15 15.3 9.2 17.5C3.3 19.8 -3 19.6 -9.5 17.4C-16 15.1 -22.7 10.9 -23.9 5.5C-25.1 0.1 -20.9 -6.6 -16 -11.7C-11 -16.8 -5.5 -20.3 0.6 -20.8C6.7 -21.3 13.4 -18.7 17.7 -13.7Z" fill="#EEFBFF"></path></g><g transform="translate(588 42)"><path d="M20.9 -17.2C26.2 -10 29.2 -1.3 27.6 6.6C26 14.5 20 21.7 12.3 25.3C4.7 28.9 -4.6 28.8 -12.1 25.2C-19.5 21.5 -25.2 14.3 -26.6 6.5C-28.1 -1.3 -25.2 -9.6 -20.1 -16.8C-14.9 -24.1 -7.5 -30.2 0.2 -30.4C7.8 -30.5 15.5 -24.5 20.9 -17.2Z" fill="#EEFBFF"></path></g><g transform="translate(282 123)"><path d="M23.9 -18.6C28.5 -13.1 28.3 -3.4 26 5.6C23.7 14.5 19.2 22.5 12.6 25.4C6 28.2 -2.6 25.8 -11.2 22.1C-19.8 18.4 -28.2 13.4 -30.3 6.3C-32.5 -0.8 -28.3 -10.1 -22.2 -15.8C-16.1 -21.6 -8.1 -24 0.8 -24.6C9.6 -25.3 19.2 -24.1 23.9 -18.6Z" fill="#EEFBFF"></path></g><g transform="translate(61 387)"><path d="M12.8 -10.3C15.5 -6.8 15.9 -1.5 14.6 2.9C13.2 7.4 10.1 11 6.2 12.9C2.3 14.7 -2.5 14.8 -7.3 13.2C-12.1 11.6 -17.1 8.3 -18.4 3.8C-19.7 -0.7 -17.4 -6.4 -13.7 -10.1C-10.1 -13.8 -5 -15.5 0 -15.5C5 -15.5 10.1 -13.8 12.8 -10.3Z" fill="#EEFBFF"></path></g><g transform="translate(213 528)"><path d="M31.6 -23.5C40.2 -14.5 45.9 -1.4 42.6 8.4C39.3 18.1 27 24.4 15 29.5C3 34.7 -8.8 38.7 -17.4 35C-26 31.3 -31.3 19.8 -32.5 9.1C-33.6 -1.7 -30.6 -11.8 -24.4 -20.3C-18.3 -28.8 -9.2 -35.8 1.2 -36.7C11.5 -37.6 23.1 -32.6 31.6 -23.5Z" fill="#EEFBFF"></path></g><g transform="translate(690 453)"><path d="M24.9 -19C30.9 -12.3 33.5 -2 31.6 7.7C29.8 17.4 23.5 26.5 15 30.3C6.5 34.1 -4.3 32.6 -13.1 28C-22 23.5 -29 15.8 -30.7 7.3C-32.4 -1.2 -28.8 -10.6 -22.7 -17.4C-16.7 -24.1 -8.4 -28.2 0.5 -28.7C9.4 -29.1 18.8 -25.8 24.9 -19Z" fill="#EEFBFF"></path></g><g transform="translate(793 346)"><path d="M24.3 -20.7C29.1 -13.2 29.2 -3.3 26.9 5.9C24.6 15.2 20.1 23.7 13.1 27.1C6 30.5 -3.5 28.7 -11.2 24.5C-18.9 20.3 -24.9 13.7 -28.5 4.6C-32.1 -4.5 -33.4 -16.1 -28.2 -23.6C-23.1 -31.1 -11.5 -34.5 -0.9 -33.8C9.7 -33 19.4 -28.1 24.3 -20.7Z" fill="#EEFBFF"></path></g><g transform="translate(27 278)"><path d="M30.2 -24.5C35.2 -17.8 32.7 -5.5 29 4.9C25.2 15.3 20.4 23.7 11.9 29.8C3.4 35.9 -8.8 39.6 -16.4 35.4C-24 31.2 -27.1 19.1 -28.9 7.6C-30.8 -3.8 -31.3 -14.6 -26.2 -21.3C-21.2 -28 -10.6 -30.6 1 -31.5C12.6 -32.3 25.2 -31.2 30.2 -24.5Z" fill="#EEFBFF"></path></g><g transform="translate(216 328)"><path d="M24.1 -20.8C28.9 -13.2 28.9 -3.3 26.4 5.3C23.9 13.9 18.8 21.2 11.8 24.6C4.8 28 -4.2 27.6 -11.5 24C-18.9 20.4 -24.7 13.7 -27.2 5.5C-29.7 -2.8 -28.9 -12.6 -23.8 -20.3C-18.7 -28.1 -9.4 -33.8 0.1 -33.9C9.6 -34 19.3 -28.5 24.1 -20.8Z" fill="#EEFBFF"></path></g><g transform="translate(388 297)"><path d="M19.6 -16.9C23.4 -10.9 23.1 -2.8 20.7 3.7C18.4 10.1 14 15.1 8.7 17.5C3.3 19.9 -3 19.7 -9.2 17.4C-15.3 15 -21.2 10.6 -22.8 4.8C-24.4 -1 -21.8 -8.1 -17.3 -14.3C-12.7 -20.5 -6.4 -25.7 0.8 -26.3C7.9 -26.9 15.8 -22.9 19.6 -16.9Z" fill="#EEFBFF"></path></g><g transform="translate(480 73)"><path d="M24.8 -19.7C31.4 -11.6 35.4 -1.3 33.4 7.7C31.4 16.7 23.5 24.5 14.7 27.6C5.9 30.7 -3.8 29.3 -12.1 25.2C-20.4 21.1 -27.3 14.5 -28.7 7C-30.1 -0.5 -25.9 -8.9 -20.2 -16.9C-14.4 -24.9 -7.2 -32.4 1 -33.2C9.1 -34 18.3 -27.9 24.8 -19.7Z" fill="#EEFBFF"></path></g><g transform="translate(205 16)"><path d="M34.5 -28.1C42 -18 43.6 -3.9 40.3 8.6C37 21.1 28.8 31.9 17.4 38.2C6 44.4 -8.6 46.2 -19.8 40.9C-31.1 35.6 -39.1 23.2 -40.9 10.6C-42.8 -1.9 -38.5 -14.6 -30.6 -24.7C-22.8 -34.9 -11.4 -42.5 1 -43.4C13.5 -44.2 26.9 -38.2 34.5 -28.1Z" fill="#EEFBFF"></path></g></g></svg>