<svg id="visual" viewBox="0 0 960 540" width="960" height="540" xmlns="http://www.w3.org/2000/svg" xmlns:xlink="http://www.w3.org/1999/xlink" version="1.1"><rect x="0" y="0" width="960" height="540" fill="#ffffff"></rect><defs><linearGradient id="grad1_0" x1="43.8%" y1="0%" x2="100%" y2="100%"><stop offset="14.444444444444446%" stop-color="#eefbff" stop-opacity="1"></stop><stop offset="85.55555555555554%" stop-color="#eefbff" stop-opacity="1"></stop></linearGradient></defs><defs><linearGradient id="grad1_1" x1="43.8%" y1="0%" x2="100%" y2="100%"><stop offset="14.444444444444446%" stop-color="#eefbff" stop-opacity="1"></stop><stop offset="85.55555555555554%" stop-color="#f4fcff" stop-opacity="1"></stop></linearGradient></defs><defs><linearGradient id="grad1_2" x1="43.8%" y1="0%" x2="100%" y2="100%"><stop offset="14.444444444444446%" stop-color="#f9feff" stop-opacity="1"></stop><stop offset="85.55555555555554%" stop-color="#f4fcff" stop-opacity="1"></stop></linearGradient></defs><defs><linearGradient id="grad1_3" x1="43.8%" y1="0%" x2="100%" y2="100%"><stop offset="14.444444444444446%" stop-color="#f9feff" stop-opacity="1"></stop><stop offset="85.55555555555554%" stop-color="#ffffff" stop-opacity="1"></stop></linearGradient></defs><defs><linearGradient id="grad2_0" x1="0%" y1="0%" x2="56.3%" y2="100%"><stop offset="14.444444444444446%" stop-color="#eefbff" stop-opacity="1"></stop><stop offset="85.55555555555554%" stop-color="#eefbff" stop-opacity="1"></stop></linearGradient></defs><defs><linearGradient id="grad2_1" x1="0%" y1="0%" x2="56.3%" y2="100%"><stop offset="14.444444444444446%" stop-color="#f4fcff" stop-opacity="1"></stop><stop offset="85.55555555555554%" stop-color="#eefbff" stop-opacity="1"></stop></linearGradient></defs><defs><linearGradient id="grad2_2" x1="0%" y1="0%" x2="56.3%" y2="100%"><stop offset="14.444444444444446%" stop-color="#f4fcff" stop-opacity="1"></stop><stop offset="85.55555555555554%" stop-color="#f9feff" stop-opacity="1"></stop></linearGradient></defs><defs><linearGradient id="grad2_3" x1="0%" y1="0%" x2="56.3%" y2="100%"><stop offset="14.444444444444446%" stop-color="#ffffff" stop-opacity="1"></stop><stop offset="85.55555555555554%" stop-color="#f9feff" stop-opacity="1"></stop></linearGradient></defs><g transform="translate(960, 0)"><path d="M0 405C-57.1 403.4 -114.2 401.8 -155 374.2C-195.8 346.5 -220.3 292.7 -252.4 252.4C-284.6 212.1 -324.4 185.3 -351.1 145.4C-377.8 105.6 -391.4 52.8 -405 0L0 0Z" fill="#fcfeff"></path><path d="M0 303.8C-42.8 302.6 -85.6 301.4 -116.2 280.6C-146.8 259.9 -165.2 219.6 -189.3 189.3C-213.4 159.1 -243.3 138.9 -263.3 109.1C-283.3 79.2 -293.5 39.6 -303.7 0L0 0Z" fill="#f7fdff"></path><path d="M0 202.5C-28.5 201.7 -57.1 200.9 -77.5 187.1C-97.9 173.3 -110.1 146.4 -126.2 126.2C-142.3 106.1 -162.2 92.6 -175.5 72.7C-188.9 52.8 -195.7 26.4 -202.5 0L0 0Z" fill="#f1fcff"></path><path d="M0 101.3C-14.3 100.9 -28.5 100.5 -38.7 93.5C-48.9 86.6 -55.1 73.2 -63.1 63.1C-71.1 53 -81.1 46.3 -87.8 36.4C-94.4 26.4 -97.8 13.2 -101.2 0L0 0Z" fill="#eefbff"></path></g><g transform="translate(0, 540)"><path d="M0 -405C51.7 -396.7 103.3 -388.4 153.5 -370.5C203.6 -352.6 252.2 -325.1 286.4 -286.4C320.5 -247.7 340.2 -197.7 357.5 -148.1C374.9 -98.5 389.9 -49.2 405 0L0 0Z" fill="#fcfeff"></path><path d="M0 -303.7C38.7 -297.5 77.5 -291.3 115.1 -277.9C152.7 -264.4 189.2 -243.8 214.8 -214.8C240.4 -185.7 255.1 -148.3 268.2 -111.1C281.2 -73.9 292.5 -36.9 303.8 0L0 0Z" fill="#f7fdff"></path><path d="M0 -202.5C25.8 -198.3 51.7 -194.2 76.7 -185.2C101.8 -176.3 126.1 -162.5 143.2 -143.2C160.3 -123.8 170.1 -98.9 178.8 -74C187.4 -49.2 195 -24.6 202.5 0L0 0Z" fill="#f1fcff"></path><path d="M0 -101.2C12.9 -99.2 25.8 -97.1 38.4 -92.6C50.9 -88.1 63.1 -81.3 71.6 -71.6C80.1 -61.9 85 -49.4 89.4 -37C93.7 -24.6 97.5 -12.3 101.3 0L0 0Z" fill="#eefbff"></path></g></svg>