<svg id="visual" viewBox="0 0 960 540" width="960" height="540" xmlns="http://www.w3.org/2000/svg" xmlns:xlink="http://www.w3.org/1999/xlink" version="1.1"><rect x="0" y="0" width="960" height="540" fill="#ffffff"></rect><g fill="none" stroke="#EEFBFF" stroke-width="2"><circle r="22" cx="712" cy="168"></circle><circle r="4" cx="620" cy="94"></circle><circle r="18" cx="226" cy="295"></circle><circle r="4" cx="228" cy="233"></circle><circle r="19" cx="63" cy="103"></circle><circle r="5" cx="319" cy="538"></circle><circle r="9" cx="875" cy="111"></circle><circle r="3" cx="771" cy="419"></circle><circle r="11" cx="333" cy="109"></circle><circle r="7" cx="839" cy="257"></circle><circle r="15" cx="2" cy="22"></circle><circle r="14" cx="160" cy="141"></circle><circle r="9" cx="141" cy="421"></circle><circle r="4" cx="722" cy="252"></circle><circle r="9" cx="337" cy="298"></circle><circle r="14" cx="195" cy="480"></circle><circle r="3" cx="739" cy="514"></circle><circle r="14" cx="120" cy="471"></circle><circle r="15" cx="910" cy="355"></circle><circle r="13" cx="27" cy="438"></circle><circle r="8" cx="907" cy="70"></circle></g></svg>