<svg xmlns="http://www.w3.org/2000/svg" width="23.512" height="23.512" viewBox="0 0 23.512 23.512"><defs><style>.a{fill:#707070;}</style></defs><path class="a" d="M22.214,0H1.3A1.3,1.3,0,0,0,0,1.3V22.215a1.3,1.3,0,0,0,1.3,1.3H12.558V14.408H9.494V10.859h3.064V8.242c0-3.036,1.854-4.691,4.563-4.691a25.413,25.413,0,0,1,2.738.139V6.864H17.98c-1.473,0-1.757.7-1.757,1.727v2.265h3.515l-.46,3.549H16.222v9.106h5.991a1.3,1.3,0,0,0,1.3-1.3V1.3A1.3,1.3,0,0,0,22.214,0Z" transform="translate(0 -0.001)"/></svg>