<svg id="visual" viewBox="0 0 1920 1080" width="1920" height="1080" xmlns="http://www.w3.org/2000/svg" xmlns:xlink="http://www.w3.org/1999/xlink" version="1.1"><g stroke-width="1" stroke-linejoin="bevel"><path d="M892.3 529L858.3 385L668 508Z" fill="#297ea6" stroke="#297ea6"></path><path d="M858.3 385L673 385L668 508Z" fill="#00101c" stroke="#00101c"></path><path d="M668 508L851.3 734L892.3 529Z" fill="#15384f" stroke="#15384f"></path><path d="M1094.7 368L851.3 214L858.3 385Z" fill="#277297" stroke="#277297"></path><path d="M858.3 385L851.3 214L673 385Z" fill="#112e42" stroke="#112e42"></path><path d="M424.7 509L610 696L668 508Z" fill="#205a7a" stroke="#205a7a"></path><path d="M668 508L610 696L851.3 734Z" fill="#246688" stroke="#246688"></path><path d="M851.3 734L1072.7 572L892.3 529Z" fill="#0c2435" stroke="#0c2435"></path><path d="M892.3 529L1094.7 368L858.3 385Z" fill="#205a7a" stroke="#205a7a"></path><path d="M851.3 214L634 211L673 385Z" fill="#0c2435" stroke="#0c2435"></path><path d="M673 385L424.7 509L668 508Z" fill="#277297" stroke="#277297"></path><path d="M1072.7 572L1094.7 368L892.3 529Z" fill="#15384f" stroke="#15384f"></path><path d="M435.7 333L424.7 509L673 385Z" fill="#1d4e6b" stroke="#1d4e6b"></path><path d="M851.3 734L1085.7 705L1072.7 572Z" fill="#297ea6" stroke="#297ea6"></path><path d="M1072.7 572L1249 510L1094.7 368Z" fill="#15384f" stroke="#15384f"></path><path d="M634 211L435.7 333L673 385Z" fill="#112e42" stroke="#112e42"></path><path d="M1094.7 368L1087.7 206L851.3 214Z" fill="#19435d" stroke="#19435d"></path><path d="M605 0L433.7 155L634 211Z" fill="#19435d" stroke="#19435d"></path><path d="M656 911L828.3 927L851.3 734Z" fill="#19435d" stroke="#19435d"></path><path d="M851.3 734L1060.7 893L1085.7 705Z" fill="#112e42" stroke="#112e42"></path><path d="M656 911L851.3 734L610 696Z" fill="#297ea6" stroke="#297ea6"></path><path d="M404.7 728L656 911L610 696Z" fill="#081a28" stroke="#081a28"></path><path d="M226.3 500L404.7 728L424.7 509Z" fill="#112e42" stroke="#112e42"></path><path d="M424.7 509L404.7 728L610 696Z" fill="#112e42" stroke="#112e42"></path><path d="M1253 683L1249 510L1072.7 572Z" fill="#246688" stroke="#246688"></path><path d="M1094.7 368L1259 368L1087.7 206Z" fill="#112e42" stroke="#112e42"></path><path d="M881.3 0L634 211L851.3 214Z" fill="#205a7a" stroke="#205a7a"></path><path d="M634 211L433.7 155L435.7 333Z" fill="#297ea6" stroke="#297ea6"></path><path d="M435.7 333L226.3 500L424.7 509Z" fill="#19435d" stroke="#19435d"></path><path d="M1249 510L1259 368L1094.7 368Z" fill="#081a28" stroke="#081a28"></path><path d="M1057.7 0L881.3 0L1087.7 206Z" fill="#277297" stroke="#277297"></path><path d="M1087.7 206L881.3 0L851.3 214Z" fill="#15384f" stroke="#15384f"></path><path d="M828.3 927L1060.7 893L851.3 734Z" fill="#19435d" stroke="#19435d"></path><path d="M1085.7 705L1253 683L1072.7 572Z" fill="#112e42" stroke="#112e42"></path><path d="M881.3 0L605 0L634 211Z" fill="#277297" stroke="#277297"></path><path d="M1060.7 893L1253 683L1085.7 705Z" fill="#205a7a" stroke="#205a7a"></path><path d="M1249 510L1472.3 522L1259 368Z" fill="#277297" stroke="#277297"></path><path d="M1268 0L1057.7 0L1087.7 206Z" fill="#297ea6" stroke="#297ea6"></path><path d="M175.3 396L226.3 500L435.7 333Z" fill="#1d4e6b" stroke="#1d4e6b"></path><path d="M1259 368L1274 188L1087.7 206Z" fill="#0c2435" stroke="#0c2435"></path><path d="M1466.3 218L1274 188L1259 368Z" fill="#00101c" stroke="#00101c"></path><path d="M404.7 728L388.7 922L656 911Z" fill="#00101c" stroke="#00101c"></path><path d="M642 1080L837.3 1080L828.3 927Z" fill="#0c2435" stroke="#0c2435"></path><path d="M233.3 745L388.7 922L404.7 728Z" fill="#112e42" stroke="#112e42"></path><path d="M642 1080L828.3 927L656 911Z" fill="#297ea6" stroke="#297ea6"></path><path d="M828.3 927L1049.7 1080L1060.7 893Z" fill="#246688" stroke="#246688"></path><path d="M605 0L410.7 0L433.7 155Z" fill="#1d4e6b" stroke="#1d4e6b"></path><path d="M433.7 155L248.3 180L435.7 333Z" fill="#205a7a" stroke="#205a7a"></path><path d="M226.3 500L233.3 745L404.7 728Z" fill="#1d4e6b" stroke="#1d4e6b"></path><path d="M410.7 0L248.3 180L433.7 155Z" fill="#15384f" stroke="#15384f"></path><path d="M248.3 180L175.3 396L435.7 333Z" fill="#205a7a" stroke="#205a7a"></path><path d="M226.3 500L0 536L233.3 745Z" fill="#19435d" stroke="#19435d"></path><path d="M452.7 1080L642 1080L656 911Z" fill="#112e42" stroke="#112e42"></path><path d="M837.3 1080L1049.7 1080L828.3 927Z" fill="#277297" stroke="#277297"></path><path d="M1060.7 893L1300 922L1253 683Z" fill="#112e42" stroke="#112e42"></path><path d="M1272 1080L1300 922L1060.7 893Z" fill="#112e42" stroke="#112e42"></path><path d="M1253 683L1472.3 522L1249 510Z" fill="#0c2435" stroke="#0c2435"></path><path d="M1457.3 0L1268 0L1274 188Z" fill="#15384f" stroke="#15384f"></path><path d="M1274 188L1268 0L1087.7 206Z" fill="#205a7a" stroke="#205a7a"></path><path d="M195.3 1080L452.7 1080L388.7 922Z" fill="#112e42" stroke="#112e42"></path><path d="M388.7 922L452.7 1080L656 911Z" fill="#297ea6" stroke="#297ea6"></path><path d="M1474.3 691L1472.3 522L1253 683Z" fill="#0c2435" stroke="#0c2435"></path><path d="M0 749L210.3 884L233.3 745Z" fill="#00101c" stroke="#00101c"></path><path d="M233.3 745L210.3 884L388.7 922Z" fill="#205a7a" stroke="#205a7a"></path><path d="M1482.3 863L1474.3 691L1253 683Z" fill="#297ea6" stroke="#297ea6"></path><path d="M1531.3 371L1466.3 218L1259 368Z" fill="#246688" stroke="#246688"></path><path d="M410.7 0L210.3 0L248.3 180Z" fill="#19435d" stroke="#19435d"></path><path d="M248.3 180L0 340L175.3 396Z" fill="#277297" stroke="#277297"></path><path d="M1715.7 349L1531.3 371L1737.7 548Z" fill="#19435d" stroke="#19435d"></path><path d="M1472.3 522L1531.3 371L1259 368Z" fill="#112e42" stroke="#112e42"></path><path d="M1300 922L1482.3 863L1253 683Z" fill="#0c2435" stroke="#0c2435"></path><path d="M1049.7 1080L1272 1080L1060.7 893Z" fill="#081a28" stroke="#081a28"></path><path d="M175.3 396L0 536L226.3 500Z" fill="#246688" stroke="#246688"></path><path d="M0 340L0 536L175.3 396Z" fill="#0c2435" stroke="#0c2435"></path><path d="M0 164L0 340L248.3 180Z" fill="#15384f" stroke="#15384f"></path><path d="M1476.3 1080L1482.3 863L1300 922Z" fill="#00101c" stroke="#00101c"></path><path d="M1474.3 691L1693.7 685L1472.3 522Z" fill="#15384f" stroke="#15384f"></path><path d="M1667.7 0L1457.3 0L1466.3 218Z" fill="#0c2435" stroke="#0c2435"></path><path d="M1466.3 218L1457.3 0L1274 188Z" fill="#246688" stroke="#246688"></path><path d="M0 536L0 749L233.3 745Z" fill="#297ea6" stroke="#297ea6"></path><path d="M210.3 884L195.3 1080L388.7 922Z" fill="#205a7a" stroke="#205a7a"></path><path d="M0 924L195.3 1080L210.3 884Z" fill="#19435d" stroke="#19435d"></path><path d="M210.3 0L0 164L248.3 180Z" fill="#112e42" stroke="#112e42"></path><path d="M0 749L0 924L210.3 884Z" fill="#081a28" stroke="#081a28"></path><path d="M1272 1080L1476.3 1080L1300 922Z" fill="#297ea6" stroke="#297ea6"></path><path d="M1482.3 863L1693.7 685L1474.3 691Z" fill="#277297" stroke="#277297"></path><path d="M210.3 0L0 0L0 164Z" fill="#0c2435" stroke="#0c2435"></path><path d="M1722.7 879L1693.7 685L1482.3 863Z" fill="#246688" stroke="#246688"></path><path d="M1531.3 371L1696.7 211L1466.3 218Z" fill="#277297" stroke="#277297"></path><path d="M1737.7 548L1531.3 371L1472.3 522Z" fill="#00101c" stroke="#00101c"></path><path d="M1715.7 349L1696.7 211L1531.3 371Z" fill="#19435d" stroke="#19435d"></path><path d="M1693.7 685L1737.7 548L1472.3 522Z" fill="#15384f" stroke="#15384f"></path><path d="M0 924L0 1080L195.3 1080Z" fill="#205a7a" stroke="#205a7a"></path><path d="M1920 0L1667.7 0L1696.7 211Z" fill="#15384f" stroke="#15384f"></path><path d="M1696.7 211L1667.7 0L1466.3 218Z" fill="#112e42" stroke="#112e42"></path><path d="M1476.3 1080L1722.7 879L1482.3 863Z" fill="#297ea6" stroke="#297ea6"></path><path d="M1920 713L1920 528L1737.7 548Z" fill="#112e42" stroke="#112e42"></path><path d="M1476.3 1080L1728.7 1080L1722.7 879Z" fill="#15384f" stroke="#15384f"></path><path d="M1920 713L1737.7 548L1693.7 685Z" fill="#19435d" stroke="#19435d"></path><path d="M1737.7 548L1920 394L1715.7 349Z" fill="#1d4e6b" stroke="#1d4e6b"></path><path d="M1715.7 349L1920 196L1696.7 211Z" fill="#246688" stroke="#246688"></path><path d="M1920 713L1693.7 685L1722.7 879Z" fill="#19435d" stroke="#19435d"></path><path d="M1920 528L1920 394L1737.7 548Z" fill="#112e42" stroke="#112e42"></path><path d="M1920 867L1920 713L1722.7 879Z" fill="#277297" stroke="#277297"></path><path d="M1920 394L1920 196L1715.7 349Z" fill="#1d4e6b" stroke="#1d4e6b"></path><path d="M1920 1080L1920 867L1722.7 879Z" fill="#246688" stroke="#246688"></path><path d="M1920 196L1920 0L1696.7 211Z" fill="#277297" stroke="#277297"></path><path d="M1728.7 1080L1920 1080L1722.7 879Z" fill="#081a28" stroke="#081a28"></path></g></svg>