<svg id="visual" viewBox="0 0 1920 1080" width="1920" height="1080" xmlns="http://www.w3.org/2000/svg" xmlns:xlink="http://www.w3.org/1999/xlink" version="1.1"><rect x="0" y="0" width="1920" height="1080" fill="#ffffff"></rect><path d="M0 794L35.5 769.2C71 744.3 142 694.7 213.2 677.7C284.3 660.7 355.7 676.3 426.8 682C498 687.7 569 683.3 640 675.5C711 667.7 782 656.3 853.2 663.5C924.3 670.7 995.7 696.3 1066.8 717.3C1138 738.3 1209 754.7 1280 764.5C1351 774.3 1422 777.7 1493.2 753C1564.3 728.3 1635.7 675.7 1706.8 679.7C1778 683.7 1849 744.3 1884.5 774.7L1920 805L1920 0L1884.5 0C1849 0 1778 0 1706.8 0C1635.7 0 1564.3 0 1493.2 0C1422 0 1351 0 1280 0C1209 0 1138 0 1066.8 0C995.7 0 924.3 0 853.2 0C782 0 711 0 640 0C569 0 498 0 426.8 0C355.7 0 284.3 0 213.2 0C142 0 71 0 35.5 0L0 0Z" fill="#027efb"></path><path d="M0 568L35.5 582.5C71 597 142 626 213.2 622.7C284.3 619.3 355.7 583.7 426.8 562.7C498 541.7 569 535.3 640 525.3C711 515.3 782 501.7 853.2 518.7C924.3 535.7 995.7 583.3 1066.8 593.3C1138 603.3 1209 575.7 1280 577.3C1351 579 1422 610 1493.2 608.8C1564.3 607.7 1635.7 574.3 1706.8 564.2C1778 554 1849 567 1884.5 573.5L1920 580L1920 0L1884.5 0C1849 0 1778 0 1706.8 0C1635.7 0 1564.3 0 1493.2 0C1422 0 1351 0 1280 0C1209 0 1138 0 1066.8 0C995.7 0 924.3 0 853.2 0C782 0 711 0 640 0C569 0 498 0 426.8 0C355.7 0 284.3 0 213.2 0C142 0 71 0 35.5 0L0 0Z" fill="#008bfb"></path><path d="M0 368L35.5 382.2C71 396.3 142 424.7 213.2 443C284.3 461.3 355.7 469.7 426.8 467.8C498 466 569 454 640 460.5C711 467 782 492 853.2 485.8C924.3 479.7 995.7 442.3 1066.8 424.2C1138 406 1209 407 1280 408.8C1351 410.7 1422 413.3 1493.2 412.2C1564.3 411 1635.7 406 1706.8 395.8C1778 385.7 1849 370.3 1884.5 362.7L1920 355L1920 0L1884.5 0C1849 0 1778 0 1706.8 0C1635.7 0 1564.3 0 1493.2 0C1422 0 1351 0 1280 0C1209 0 1138 0 1066.8 0C995.7 0 924.3 0 853.2 0C782 0 711 0 640 0C569 0 498 0 426.8 0C355.7 0 284.3 0 213.2 0C142 0 71 0 35.5 0L0 0Z" fill="#0097f9"></path><path d="M0 291L35.5 298.2C71 305.3 142 319.7 213.2 311.2C284.3 302.7 355.7 271.3 426.8 277.5C498 283.7 569 327.3 640 325.3C711 323.3 782 275.7 853.2 273.7C924.3 271.7 995.7 315.3 1066.8 317.3C1138 319.3 1209 279.7 1280 278.2C1351 276.7 1422 313.3 1493.2 323.5C1564.3 333.7 1635.7 317.3 1706.8 301C1778 284.7 1849 268.3 1884.5 260.2L1920 252L1920 0L1884.5 0C1849 0 1778 0 1706.8 0C1635.7 0 1564.3 0 1493.2 0C1422 0 1351 0 1280 0C1209 0 1138 0 1066.8 0C995.7 0 924.3 0 853.2 0C782 0 711 0 640 0C569 0 498 0 426.8 0C355.7 0 284.3 0 213.2 0C142 0 71 0 35.5 0L0 0Z" fill="#00a2f5"></path><path d="M0 188L35.5 173C71 158 142 128 213.2 131.7C284.3 135.3 355.7 172.7 426.8 182.5C498 192.3 569 174.7 640 157.2C711 139.7 782 122.3 853.2 116.5C924.3 110.7 995.7 116.3 1066.8 129.8C1138 143.3 1209 164.7 1280 180C1351 195.3 1422 204.7 1493.2 208.8C1564.3 213 1635.7 212 1706.8 195.7C1778 179.3 1849 147.7 1884.5 131.8L1920 116L1920 0L1884.5 0C1849 0 1778 0 1706.8 0C1635.7 0 1564.3 0 1493.2 0C1422 0 1351 0 1280 0C1209 0 1138 0 1066.8 0C995.7 0 924.3 0 853.2 0C782 0 711 0 640 0C569 0 498 0 426.8 0C355.7 0 284.3 0 213.2 0C142 0 71 0 35.5 0L0 0Z" fill="#00acee"></path></svg>