<svg id="visual" viewBox="0 0 1920 1080" width="1920" height="1080" xmlns="http://www.w3.org/2000/svg" xmlns:xlink="http://www.w3.org/1999/xlink" version="1.1"><rect x="0" y="0" width="1920" height="1080" fill="#ffffff"></rect><path d="M0 705L35.5 717.3C71 729.7 142 754.3 213.2 765.2C284.3 776 355.7 773 426.8 764.7C498 756.3 569 742.7 640 720.2C711 697.7 782 666.3 853.2 661.8C924.3 657.3 995.7 679.7 1066.8 689.5C1138 699.3 1209 696.7 1280 712.8C1351 729 1422 764 1493.2 751.3C1564.3 738.7 1635.7 678.3 1706.8 660.2C1778 642 1849 666 1884.5 678L1920 690L1920 0L1884.5 0C1849 0 1778 0 1706.8 0C1635.7 0 1564.3 0 1493.2 0C1422 0 1351 0 1280 0C1209 0 1138 0 1066.8 0C995.7 0 924.3 0 853.2 0C782 0 711 0 640 0C569 0 498 0 426.8 0C355.7 0 284.3 0 213.2 0C142 0 71 0 35.5 0L0 0Z" fill="#027efb"></path><path d="M0 489L35.5 509.5C71 530 142 571 213.2 572.2C284.3 573.3 355.7 534.7 426.8 543.8C498 553 569 610 640 627.5C711 645 782 623 853.2 597.7C924.3 572.3 995.7 543.7 1066.8 525C1138 506.3 1209 497.7 1280 507.5C1351 517.3 1422 545.7 1493.2 556C1564.3 566.3 1635.7 558.7 1706.8 569.2C1778 579.7 1849 608.3 1884.5 622.7L1920 637L1920 0L1884.5 0C1849 0 1778 0 1706.8 0C1635.7 0 1564.3 0 1493.2 0C1422 0 1351 0 1280 0C1209 0 1138 0 1066.8 0C995.7 0 924.3 0 853.2 0C782 0 711 0 640 0C569 0 498 0 426.8 0C355.7 0 284.3 0 213.2 0C142 0 71 0 35.5 0L0 0Z" fill="#008bfb"></path><path d="M0 394L35.5 396.8C71 399.7 142 405.3 213.2 424.2C284.3 443 355.7 475 426.8 493C498 511 569 515 640 511.8C711 508.7 782 498.3 853.2 489.8C924.3 481.3 995.7 474.7 1066.8 466.2C1138 457.7 1209 447.3 1280 451.3C1351 455.3 1422 473.7 1493.2 464.5C1564.3 455.3 1635.7 418.7 1706.8 398.5C1778 378.3 1849 374.7 1884.5 372.8L1920 371L1920 0L1884.5 0C1849 0 1778 0 1706.8 0C1635.7 0 1564.3 0 1493.2 0C1422 0 1351 0 1280 0C1209 0 1138 0 1066.8 0C995.7 0 924.3 0 853.2 0C782 0 711 0 640 0C569 0 498 0 426.8 0C355.7 0 284.3 0 213.2 0C142 0 71 0 35.5 0L0 0Z" fill="#0097f9"></path><path d="M0 276L35.5 288.8C71 301.7 142 327.3 213.2 337C284.3 346.7 355.7 340.3 426.8 322C498 303.7 569 273.3 640 279.7C711 286 782 329 853.2 339.2C924.3 349.3 995.7 326.7 1066.8 326.5C1138 326.3 1209 348.7 1280 349.7C1351 350.7 1422 330.3 1493.2 322.7C1564.3 315 1635.7 320 1706.8 327.2C1778 334.3 1849 343.7 1884.5 348.3L1920 353L1920 0L1884.5 0C1849 0 1778 0 1706.8 0C1635.7 0 1564.3 0 1493.2 0C1422 0 1351 0 1280 0C1209 0 1138 0 1066.8 0C995.7 0 924.3 0 853.2 0C782 0 711 0 640 0C569 0 498 0 426.8 0C355.7 0 284.3 0 213.2 0C142 0 71 0 35.5 0L0 0Z" fill="#00a2f5"></path><path d="M0 180L35.5 167.7C71 155.3 142 130.7 213.2 132.7C284.3 134.7 355.7 163.3 426.8 166.8C498 170.3 569 148.7 640 144.3C711 140 782 153 853.2 167C924.3 181 995.7 196 1066.8 199.3C1138 202.7 1209 194.3 1280 192.7C1351 191 1422 196 1493.2 196.5C1564.3 197 1635.7 193 1706.8 185.5C1778 178 1849 167 1884.5 161.5L1920 156L1920 0L1884.5 0C1849 0 1778 0 1706.8 0C1635.7 0 1564.3 0 1493.2 0C1422 0 1351 0 1280 0C1209 0 1138 0 1066.8 0C995.7 0 924.3 0 853.2 0C782 0 711 0 640 0C569 0 498 0 426.8 0C355.7 0 284.3 0 213.2 0C142 0 71 0 35.5 0L0 0Z" fill="#00acee"></path></svg>